<?xml version="1.0" encoding="UTF-8"?> <!-- Generator: Adobe Illustrator 25.1.0, SVG Export Plug-In . SVG Version: 6.00 Build 0) --> <svg xmlns="http://www.w3.org/2000/svg" xmlns:xlink="http://www.w3.org/1999/xlink" version="1.1" id="Layer_2" x="0px" y="0px" viewBox="0 0 187 28.1" style="enable-background:new 0 0 187 28.1;" xml:space="preserve"> <style type="text/css"> .st0{fill:#FFFFFF;} </style> <g> <g> <path class="st0" d="M7.1,18.8V8.4H4.3V5.3h9.4v3.1H11v10c0,3.1,2,4.2,4.6,4.2c2.5,0,4.5-1.1,4.5-4.3v-10h-2.8V5.3h9.2v3.1h-2.7 v10.1c0,4.8-3.2,7.7-8.3,7.7C11.1,26.1,7.1,24.1,7.1,18.8z"></path> <path class="st0" d="M27.1,22.7h2.2v-8.6h-2.2v-2.9H33V13c1.4-1.1,3.2-2.2,5.4-2.2c2.6,0,4.3,1.5,4.3,4.5v7.4h2.2v2.9h-8.2v-2.9 h2.2v-7c0-1.2-0.4-1.9-1.8-1.9c-1.4,0-2.9,0.8-4,1.7v7.2h2.2v2.9h-8.2V22.7z"></path> <path class="st0" d="M46.6,22.7h2.2v-8.6h-2.2v-2.9h6v11.5h2.2v2.9h-8.2V22.7z M50.5,3.9c1.4,0,2.6,1.2,2.6,2.6s-1.2,2.6-2.6,2.6 c-1.4,0-2.6-1.2-2.6-2.6S49.1,3.9,50.5,3.9z"></path> <path class="st0" d="M58.3,21.7v-7.5h-2.5v-3h2.5V7.5h3.8v3.7h4v3h-4v7.3c0,1.4,0.8,1.6,1.9,1.6c0.9,0,1.7-0.2,2.2-0.4v2.8 c-0.9,0.2-2,0.5-3.4,0.5C59.2,26.1,58.3,24.4,58.3,21.7z"></path> <path class="st0" d="M67.8,18.5c0-4.4,2.5-7.6,7.1-7.6c4.6,0,6.6,3.2,6.6,7.2c0,0.5,0,1.1-0.1,1.6h-9.8c0.4,2.3,1.7,3.5,4.4,3.5 c2,0,3.5-0.7,4.7-1.3v2.9c-1.1,0.6-2.9,1.3-5.2,1.3C70.3,26.1,67.8,22.8,67.8,18.5z M71.6,17H78c-0.1-1.7-0.8-3.4-3-3.4 C72.8,13.6,71.9,15.2,71.6,17z"></path> <path class="st0" d="M83.4,18.5c0-4.7,2.7-7.6,6.8-7.6c1.6,0,2.8,0.4,3.8,1.1V5h-2.7V2h6.5v20.7h2.2v2.9h-5.7v-1.6 c-1,1.1-2.4,2-4.5,2C85.9,26.1,83.4,23,83.4,18.5z M94,22v-7.3c-0.7-0.5-1.6-0.9-2.8-0.9c-2.6,0-3.9,1.8-3.9,4.7 c0,2.5,1,4.8,3.7,4.8C92.2,23.2,93.2,22.6,94,22z"></path> <path class="st0" d="M102.2,15.5c0-6,3.7-10.6,10.8-10.6c2.5,0,4.9,0.6,6.7,1.5v4.4h-1.2V7c-1.5-0.6-3.6-1-5.5-1 c-5.5,0-9.6,3.3-9.6,9.5c0,6.6,4.7,9.5,9.5,9.5c2.6,0,5.1-0.8,6.9-1.9v1.1c-1.7,1-4.2,1.8-6.9,1.8C107,26.1,102.2,22.2,102.2,15.5 z"></path> <path class="st0" d="M122.3,18.7c0-4.7,3-7.4,6.7-7.4c3.8,0,6.7,2.7,6.7,7.4c0,4.8-3,7.4-6.7,7.4 C125.3,26.1,122.3,23.4,122.3,18.7z M134.5,18.7c0-4-2.2-6.4-5.5-6.4c-3.3,0-5.5,2.4-5.5,6.4c0,4,2.2,6.4,5.5,6.4 C132.3,25,134.5,22.6,134.5,18.7z"></path> <path class="st0" d="M137.6,24.7h2.8V3h-2.8V2h4v22.7h2.8v1h-6.8V24.7z"></path> <path class="st0" d="M145.5,24.7h2.8V3h-2.8V2h4v22.7h2.8v1h-6.8V24.7z"></path> <path class="st0" d="M154,22c0-3.7,3.8-4.3,6.3-4.3h3.6v-1.5c0-2.9-1.1-3.9-3.8-3.9c-1.8,0-3.6,0.5-4.9,1v-1c1.5-0.6,3.3-1,5-1 c3.4,0,4.8,1.5,4.8,4.8v8.7h2.8v1h-3.9v-1.9c-1.2,1-3.3,2.3-5.5,2.3C156,26.1,154,24.8,154,22z M163.8,22.6v-3.9h-3.6 c-2.2,0-5.1,0.5-5.1,3.3c0,2,1.5,3,3.3,3C160.6,25,162.5,23.7,163.8,22.6z"></path> <path class="st0" d="M170.6,25.4V3h-2.8V2h4v11.1c1.3-1,3-1.9,5-1.9c3.7,0,5.9,3,5.9,7.2c0,4.9-3,7.6-7.4,7.6 C173.9,26.1,172.1,25.8,170.6,25.4z M181.5,18.4c0-3.7-1.9-6.1-4.9-6.1c-2,0-3.7,1-4.9,2v10.3c1,0.2,2.4,0.4,3.5,0.4 C179.3,25,181.5,22.3,181.5,18.4z"></path> </g> </g> </svg> 