<svg xmlns="http://www.w3.org/2000/svg" viewBox="0 0 77.68 83.98">
  <defs>
    <style>.cls-1{fill:#00a5e0;}.cls-2{fill:#231f20;}.cls-3{fill:#fff;}</style>
  </defs>
  <g id="Layer_2" data-name="Layer 2">
    <g id="Layer_1-2" data-name="Layer 1">
      <circle class="cls-1" cx="45.06" cy="30.58" r="30.58"></circle>
      <path class="cls-2" d="M57.36,72.78c-6.57,0-11.9,4.79-11.9,10.7H69.27C69.27,77.57,63.94,72.78,57.36,72.78Z"></path>
      <path class="cls-2" d="M20.32,72.78c-6.58,0-11.91,4.79-11.91,10.7H32.22C32.22,77.57,26.89,72.78,20.32,72.78Z"></path>
      <path class="cls-2" d="M38.84,77.53c-3.65,0-6.62,2.66-6.62,6H45.46C45.46,80.19,42.49,77.53,38.84,77.53Z"></path>
      <path class="cls-3" d="M57.36,72.28c-5.82,0-10.72,3.64-12,8.53a7.43,7.43,0,0,0-12.94,0c-1.33-4.89-6.23-8.53-12-8.53-6.84,0-12.41,5-12.41,11.2a.5.5,0,0,0,.5.5H69.27a.5.5,0,0,0,.5-.5C69.77,77.3,64.21,72.28,57.36,72.28ZM38.84,78a5.9,5.9,0,0,1,6.09,5H32.75A5.9,5.9,0,0,1,38.84,78ZM8.92,83c.29-5.4,5.29-9.7,11.4-9.7s11.1,4.3,11.39,9.7ZM46,83c.29-5.4,5.29-9.7,11.39-9.7s11.11,4.3,11.4,9.7Z"></path>
      <path class="cls-3" d="M28.18,72.72a.51.51,0,0,1-.31-.11,15.65,15.65,0,0,0-2.1-1.4.5.5,0,1,1,.5-.87,17.56,17.56,0,0,1,2.22,1.49.49.49,0,0,1,.08.7A.51.51,0,0,1,28.18,72.72Z"></path>
      <path class="cls-3" d="M24.06,70.32a.63.63,0,0,1-.19,0,17.1,17.1,0,0,0-2.42-.79c-.6-.14-1.21-.26-1.82-.34a.51.51,0,0,1-.43-.57.5.5,0,0,1,.56-.42,18,18,0,0,1,4.49,1.19.5.5,0,0,1,.27.65A.48.48,0,0,1,24.06,70.32Z"></path>
      <path class="cls-3" d="M8.33,71.27a.5.5,0,0,1-.25-.93A18.48,18.48,0,0,1,17.17,68a.5.5,0,0,1,0,1,17.57,17.57,0,0,0-8.6,2.22A.5.5,0,0,1,8.33,71.27Z"></path>
      <path class="cls-3" d="M.5,84a.5.5,0,0,1-.5-.5A14.6,14.6,0,0,1,4.17,73.37a.49.49,0,0,1,.7,0,.5.5,0,0,1,0,.71A13.6,13.6,0,0,0,1,83.48.5.5,0,0,1,.5,84Z"></path>
      <path class="cls-3" d="M49.5,72.72a.51.51,0,0,1-.39-.19.49.49,0,0,1,.08-.7,17,17,0,0,1,2.23-1.49.5.5,0,0,1,.68.19.51.51,0,0,1-.19.68,15.65,15.65,0,0,0-2.1,1.4A.51.51,0,0,1,49.5,72.72Z"></path>
      <path class="cls-3" d="M53.62,70.32a.48.48,0,0,1-.46-.31.5.5,0,0,1,.27-.65,18,18,0,0,1,4.49-1.19.49.49,0,0,1,.56.42.5.5,0,0,1-.43.57c-.61.08-1.22.2-1.82.34a17.1,17.1,0,0,0-2.42.79A.63.63,0,0,1,53.62,70.32Z"></path>
      <path class="cls-3" d="M69.35,71.27a.5.5,0,0,1-.24-.06A17.57,17.57,0,0,0,60.51,69a.5.5,0,0,1,0-1,18.48,18.48,0,0,1,9.09,2.35.5.5,0,0,1-.25.93Z"></path>
      <path class="cls-3" d="M77.18,84a.5.5,0,0,1-.5-.5,13.6,13.6,0,0,0-3.89-9.42.5.5,0,0,1,0-.71.49.49,0,0,1,.7,0,14.6,14.6,0,0,1,4.17,10.11A.5.5,0,0,1,77.18,84Z"></path>
      <path class="cls-2" d="M47.41,28.31c0-4.73-8.57-12.17-8.57-12.17s-8.57,7.44-8.57,12.17V56.38H47.41Z"></path>
      <polygon class="cls-2" points="30.27 56.2 22.51 61.85 22.51 50.91 30.27 45.27 30.27 56.2"></polygon>
      <polygon class="cls-2" points="47.41 56.2 55.17 61.85 55.17 50.91 47.41 45.27 47.41 56.2"></polygon>
      <path class="cls-3" d="M55.47,50.51,47.91,45V28.31c0-4.9-8.39-12.24-8.75-12.55a.48.48,0,0,0-.65,0c-.36.31-8.74,7.65-8.74,12.55V45l-7.56,5.49a.48.48,0,0,0-.2.4V61.85a.49.49,0,0,0,.27.44.46.46,0,0,0,.23.06.53.53,0,0,0,.29-.1l7.4-5.38H47.47l7.41,5.38a.53.53,0,0,0,.29.1.46.46,0,0,0,.23-.06.49.49,0,0,0,.27-.44V50.91A.48.48,0,0,0,55.47,50.51ZM23,51.17l6.76-4.92V56L23,60.86Zm23.9,4.71H30.77V28.31c0-3.94,6.51-10.09,8.07-11.5,1.55,1.41,8.07,7.56,8.07,11.5Zm7.76,5L47.91,56v-9.7l6.76,4.92Z"></path>
      <path class="cls-3" d="M33.6,66.55a.51.51,0,0,1-.5-.5V59.46a.5.5,0,0,1,.5-.5.5.5,0,0,1,.5.5v6.59A.5.5,0,0,1,33.6,66.55Z"></path>
      <path class="cls-3" d="M38.84,66.55a.5.5,0,0,1-.5-.5V59.46a.5.5,0,0,1,1,0v6.59A.5.5,0,0,1,38.84,66.55Z"></path>
      <path class="cls-3" d="M44.08,66.55a.5.5,0,0,1-.5-.5V59.46a.5.5,0,0,1,.5-.5.5.5,0,0,1,.5.5v6.59A.51.51,0,0,1,44.08,66.55Z"></path>
      <path class="cls-3" d="M33.6,71.72a.5.5,0,0,1-.5-.5V69.1a.5.5,0,0,1,.5-.5.5.5,0,0,1,.5.5v2.12A.5.5,0,0,1,33.6,71.72Z"></path>
      <path class="cls-3" d="M38.84,71.72a.5.5,0,0,1-.5-.5V69.1a.5.5,0,0,1,1,0v2.12A.5.5,0,0,1,38.84,71.72Z"></path>
      <path class="cls-3" d="M44.08,71.72a.5.5,0,0,1-.5-.5V69.1a.5.5,0,0,1,.5-.5.5.5,0,0,1,.5.5v2.12A.5.5,0,0,1,44.08,71.72Z"></path>
      <circle class="cls-2" cx="38.84" cy="31.9" r="4.38"></circle>
      <path class="cls-3" d="M38.84,36.78a4.88,4.88,0,1,1,4.88-4.88A4.89,4.89,0,0,1,38.84,36.78Zm0-8.76a3.88,3.88,0,1,0,3.88,3.88A3.88,3.88,0,0,0,38.84,28Z"></path>
      <path class="cls-3" d="M67.79,57.65H66.11V56a.5.5,0,0,0-1,0v1.68H63.43a.5.5,0,0,0,0,1h1.68v1.68a.5.5,0,0,0,1,0V58.65h1.68a.5.5,0,0,0,0-1Z"></path>
      <path class="cls-3" d="M59.41,22.59H57.73V20.91a.5.5,0,0,0-.5-.5.51.51,0,0,0-.5.5v1.68H55.05a.5.5,0,0,0-.5.5.5.5,0,0,0,.5.5h1.68v1.69a.51.51,0,0,0,.5.5.5.5,0,0,0,.5-.5V23.59h1.68a.5.5,0,0,0,.5-.5A.5.5,0,0,0,59.41,22.59Z"></path>
      <path class="cls-3" d="M24.55,37.41H22.87V35.73a.51.51,0,0,0-.5-.5.5.5,0,0,0-.5.5v1.68H20.19a.5.5,0,0,0-.5.5.5.5,0,0,0,.5.5h1.68V40.1a.5.5,0,0,0,.5.5.51.51,0,0,0,.5-.5V38.41h1.68a.5.5,0,0,0,.5-.5A.51.51,0,0,0,24.55,37.41Z"></path>
      <path class="cls-3" d="M34.55,10.41H32.87V8.73a.51.51,0,0,0-.5-.5.5.5,0,0,0-.5.5v1.68H30.19a.5.5,0,0,0-.5.5.5.5,0,0,0,.5.5h1.68V13.1a.5.5,0,0,0,.5.5.51.51,0,0,0,.5-.5V11.41h1.68a.5.5,0,0,0,.5-.5A.51.51,0,0,0,34.55,10.41Z"></path>
      <path class="cls-3" d="M11,61.28H9.32V59.6a.5.5,0,0,0-1,0v1.68H6.64a.5.5,0,0,0-.5.5.5.5,0,0,0,.5.5H8.32V64a.5.5,0,0,0,1,0V62.28H11a.5.5,0,0,0,.5-.5A.5.5,0,0,0,11,61.28Z"></path>
    </g>
  </g>
</svg>