<?xml version="1.0" encoding="UTF-8"?> <!-- Generator: Adobe Illustrator 25.1.0, SVG Export Plug-In . SVG Version: 6.00 Build 0) --> <svg xmlns="http://www.w3.org/2000/svg" xmlns:xlink="http://www.w3.org/1999/xlink" version="1.1" x="0px" y="0px" viewBox="0 0 568.6 441" style="enable-background:new 0 0 568.6 441;" xml:space="preserve"> <style type="text/css"> .st0{fill:#FFFFFF;} .st1{display:none;} </style> <g id="Layer_1"> <path class="st0" d="M359,77.2L284.8,3l-1,1l-51.5,51.5l-22.7,22.7c-89.3,89.3-97.3,186.3-30.4,270.3c-16.9-9-34-22-51.1-39.1 l-74.9-74.9L0,287.8l74.2,74.2c68.1,68.1,140.6,88.9,208.5,65.4c68.9,25.5,142.5,4.9,211.7-64.4l74.2-74.2L516,236.3l-74.9,74.9 c-18.6,18.6-37,31.9-55.3,40.9C457.4,266.5,449.9,168.1,359,77.2z M321.1,324.1c-12.1,12.1-24.8,20.9-37.8,27.5 c-12.2-6.6-24.2-15-35.7-26.5c-56.5-56.5-53.9-124.4,14.7-193l23.3-23.3l21.6,21.6C375.7,199,378.3,266.9,321.1,324.1z"></path> </g> <g id="Creative_Commons_License" class="st1"> <text id="Creative_Commons_License_1_" transform="matrix(1 0 0 1 -109.6882 514.0918)" style="display:inline; font-family:'MyriadPro-Regular'; font-size:12px;">With assets by Icomoon / CC BY</text> </g> </svg> 