<svg xmlns="http://www.w3.org/2000/svg" viewBox="0 0 65.31 79.99">
  <defs>
    <style>.cls-1{fill:#00a5e0;}.cls-2{fill:#231f20;}.cls-3{fill:#fff;}</style>
  </defs>
  <g id="Layer_2" data-name="Layer 2">
    <g id="Layer_1-2" data-name="Layer 1">
      <circle class="cls-1" cx="31.01" cy="30.58" r="30.58"></circle>
      <path class="cls-2" d="M.79,36.49s4.38-3.38,14.78-5.29c1-2.56,6.43-7.64,9.9-8,.53-.07-1.72-1.22-.09-2.4s11.83-2.19,13.76-.6-.87,1.56,2,3.36c2.53.62,5.47,2.82,8.73,8,.89.58,12.42,2,14.35,5.27s.64,14.56.64,14.56c-.21,0-10.23,6.72-14.52,6.1-.43-.06.29-4.84-.33-4.84-1,0-2.55,1.39-4.8,0-.37-.22-.1,4.36-.43,4.76-6,7.31-21.34,9.16-24.3,0a27.28,27.28,0,0,1-.67-4.72c-1.09,0-3.28,1.29-5.13-1.24-.53-.73.62,6.23-.25,6.23-8,0-14.16-5.13-14-5.77C.79,49.56.79,36.49.79,36.49Z"></path>
      <path class="cls-3" d="M9.41,48.47c.69.16,1.42.32,2.16.47a.62.62,0,0,0,.19,0,1,1,0,0,0,1-.77A1,1,0,0,0,12,47c-.72-.14-1.43-.3-2.1-.46a1,1,0,0,0-1.17.72A1,1,0,0,0,9.41,48.47Z"></path>
      <path class="cls-2" d="M11.76,49.46l-.29,0c-.75-.15-1.48-.31-2.18-.48a1.49,1.49,0,0,1-.91-.66,1.45,1.45,0,0,1-.17-1.11A1.47,1.47,0,0,1,10,46.09c.67.16,1.36.32,2.08.47a1.47,1.47,0,0,1-.3,2.9ZM9.63,47.05a.51.51,0,0,0-.24.07.47.47,0,0,0-.21.29.5.5,0,0,0,.05.36.51.51,0,0,0,.29.21h0c.69.16,1.41.33,2.15.47.31,0,.51-.14.55-.36a.47.47,0,0,0-.06-.35.49.49,0,0,0-.3-.21c-.73-.14-1.44-.3-2.12-.46Z"></path>
      <path class="cls-3" d="M9.41,57.42c.69.17,1.42.33,2.16.48l.19,0A1,1,0,0,0,12,56c-.72-.15-1.43-.3-2.1-.46a1,1,0,1,0-.45,1.88Z"></path>
      <path class="cls-2" d="M11.76,58.42l-.29,0c-.75-.15-1.48-.31-2.18-.48h0a1.49,1.49,0,0,1-.91-.66,1.49,1.49,0,0,1,.49-2A1.48,1.48,0,0,1,10,55.05c.67.16,1.36.32,2.08.46a1.47,1.47,0,0,1,.93.63,1.43,1.43,0,0,1,.21,1.1A1.47,1.47,0,0,1,11.76,58.42ZM9.52,56.93c.69.17,1.41.33,2.15.48a.51.51,0,0,0,.55-.37.48.48,0,0,0-.06-.35.52.52,0,0,0-.3-.2c-.73-.15-1.44-.31-2.12-.47a.44.44,0,0,0-.35.06.45.45,0,0,0-.21.29.47.47,0,0,0,.05.35.44.44,0,0,0,.29.21Z"></path>
      <path class="cls-3" d="M9.41,54.68c.69.17,1.42.33,2.16.48a.62.62,0,0,0,.19,0,1,1,0,0,0,1-.77A1,1,0,0,0,12,53.26c-.72-.14-1.43-.3-2.1-.46a1,1,0,1,0-.45,1.88Z"></path>
      <path class="cls-2" d="M11.76,55.68a1.36,1.36,0,0,1-.29,0c-.75-.15-1.48-.31-2.18-.48h0a1.46,1.46,0,0,1-.91-.66,1.45,1.45,0,0,1-.17-1.11A1.47,1.47,0,0,1,10,52.31c.67.16,1.36.32,2.08.46a1.47,1.47,0,0,1-.3,2.91ZM9.52,54.2c.69.16,1.41.32,2.15.47a.51.51,0,0,0,.55-.36.47.47,0,0,0-.36-.56c-.73-.14-1.44-.3-2.12-.46a.4.4,0,0,0-.35.05.47.47,0,0,0-.21.29.5.5,0,0,0,.05.36.51.51,0,0,0,.29.21Z"></path>
      <path class="cls-3" d="M54,47.87a1,1,0,0,0,.94.75.83.83,0,0,0,.22,0,40.5,40.5,0,0,0,6.63-2.07,1,1,0,0,0-.76-1.78,38.27,38.27,0,0,1-6.31,2A1,1,0,0,0,54,47.87Z"></path>
      <path class="cls-2" d="M55,49.12A1.47,1.47,0,0,1,53.54,48h0a1.45,1.45,0,0,1,1.1-1.76,39.09,39.09,0,0,0,6.22-1.94,1.47,1.47,0,0,1,1.93.78A1.46,1.46,0,0,1,62,47a41.14,41.14,0,0,1-6.71,2.1A1.19,1.19,0,0,1,55,49.12Zm6.47-4a.43.43,0,0,0-.19,0,39.08,39.08,0,0,1-6.38,2,.47.47,0,0,0-.3.21.54.54,0,0,0-.06.35h0a.5.5,0,0,0,.57.36,40.33,40.33,0,0,0,6.54-2,.46.46,0,0,0,.25-.61.43.43,0,0,0-.26-.25A.33.33,0,0,0,61.44,45.16Z"></path>
      <path class="cls-3" d="M61.06,47.75c-.56.24-1.16.47-1.79.69a1,1,0,0,0,.32,1.88.89.89,0,0,0,.32,0c.67-.24,1.31-.48,1.91-.73a1,1,0,0,0-.76-1.79Z"></path>
      <path class="cls-2" d="M59.59,50.82a1.47,1.47,0,0,1-1.32-2.11,1.48,1.48,0,0,1,.84-.75c.62-.21,1.21-.44,1.75-.67h0a1.47,1.47,0,0,1,1.93.78,1.45,1.45,0,0,1,0,1.12A1.49,1.49,0,0,1,62,50c-.59.25-1.25.5-1.94.74A1.31,1.31,0,0,1,59.59,50.82Zm1.66-2.61c-.56.24-1.17.48-1.81.7a.46.46,0,0,0-.27.24.45.45,0,0,0,0,.36.48.48,0,0,0,.59.29c.67-.24,1.3-.48,1.88-.72a.43.43,0,0,0,.25-.26.45.45,0,0,0,0-.36.43.43,0,0,0-.26-.25.45.45,0,0,0-.36,0Z"></path>
      <path class="cls-3" d="M45.72,41.14H19.42a2.86,2.86,0,1,0,0,5.71h26.3a2.86,2.86,0,1,0,0-5.71Zm0,3.77H19.42a.92.92,0,0,1,0-1.84h26.3a.92.92,0,0,1,0,1.84Z"></path>
      <path class="cls-2" d="M45.72,47.35H19.42a3.36,3.36,0,1,1,0-6.71h26.3a3.36,3.36,0,1,1,0,6.71Zm-26.3-5.71a2.36,2.36,0,1,0,0,4.71h26.3a2.36,2.36,0,1,0,0-4.71Zm26.3,3.77H19.42a1.42,1.42,0,1,1,0-2.84h26.3a1.42,1.42,0,0,1,0,2.84Zm-26.3-1.84a.42.42,0,0,0,0,.84h26.3a.42.42,0,1,0,0-.84Z"></path>
      <path class="cls-3" d="M60.82,34a44.65,44.65,0,0,0-10.61-2.81l-.26,0-.11-.25A15,15,0,0,0,40.91,23l-.38-.12,0-.4c0-.07,0-.13,0-.19a2.81,2.81,0,0,0-2.78-2.87H27.34a2.79,2.79,0,0,0-2.78,2.78,1.57,1.57,0,0,0,0,.26l0,.4-.38.13A14.93,14.93,0,0,0,18,26.85a14.72,14.72,0,0,0-2.75,4l-.11.24-.27,0C5.44,32.7,0,35.31,0,38.34v15.9a2.8,2.8,0,0,0,0,.4Q.32,56.43,3,58a.46.46,0,0,0,.64-.18.47.47,0,0,0-.18-.64c-1-.59-2.34-1.53-2.52-2.63,0-.12,0-.2,0-.27V40.76l.81.63c1.69,1.31,4.64,2.51,8.53,3.45,1.13.27,2.33.52,3.56.74a.83.83,0,0,1,.68.81v13.1a.86.86,0,0,1-.29.64.81.81,0,0,1-.68.17,49.18,49.18,0,0,1-5.69-1.37.47.47,0,1,0-.28.9,55.73,55.73,0,0,0,5.8,1.4,1.76,1.76,0,0,0,1.44-.39,1.75,1.75,0,0,0,.64-1.35V53.28l.67.25a4.76,4.76,0,0,0,2.77.15l.59-.15.16,2.87a9.79,9.79,0,0,0,8,9.08l.41.08v1.76l-.44.05a11.32,11.32,0,0,0-2.87.68l-.19,0h-8.8a5,5,0,0,0-5,5v6.46a.47.47,0,1,0,.94,0V73.06a4,4,0,0,1,4-4h7.38l-.32.71a2.77,2.77,0,0,0-.24,1.16c0,1.61,1.11,3.48,3,5a10.9,10.9,0,0,0,14.13,0c1.87-1.54,3-3.41,3-5a2.77,2.77,0,0,0-.24-1.16L42.05,69h7.38a4,4,0,0,1,4,4v6.46a.47.47,0,0,0,.94,0V73.06a5,5,0,0,0-5-5l-9,0a11.21,11.21,0,0,0-2.87-.68l-.44-.05V65.55l.41-.08a9.79,9.79,0,0,0,7.9-9.07l.16-2.86.59.14A4.78,4.78,0,0,0,49,53.5l.68-.27V59.5a1.75,1.75,0,0,0,.65,1.34,1.77,1.77,0,0,0,1.44.39c10.72-2,12.94-4.86,13.3-6.37a2.64,2.64,0,0,0,.08-.62s0-15.73,0-15.9h0C65.17,36.74,63.7,35.27,60.82,34ZM39.91,23.63l.21.06A14,14,0,0,1,49.63,33l.22.67-.94,0H37.61l-.12-.06a4.35,4.35,0,0,1-2.25-3.81V24h3.57a1.8,1.8,0,0,0,.91-.25Zm-4.62,9.19.56.79H29.28l.57-.79a5.24,5.24,0,0,0,1-3.08V24H34.3v5.74A5.24,5.24,0,0,0,35.29,32.82ZM25.5,22.15a1.84,1.84,0,0,1,1.84-1.84H37.8a1.84,1.84,0,0,1,1.84,1.84.85.85,0,0,1-.83.91H26.32a.82.82,0,0,1-.82-.82Zm-14.21,22-.79-.18a28,28,0,0,1-7.13-2.58C1.78,40.43.94,39.45.94,38.52V38.4c0-2.37,5-4.69,13-6.1l.79-.14-.22.77c-.09.29-.16.58-.23.88l0,.23-.21.1a4.93,4.93,0,0,0-2.71,4.41Zm7.79,8.53a3.68,3.68,0,0,1-1.32.24,3.75,3.75,0,0,1-2.07-.62l-.23-.14V50.94L16,51h3.35l.09,1.55ZM37.16,68.27l.5.06c3.59.49,4,1.69,4,2.56,0,2.64-4.08,6.68-9.1,6.68s-9.1-4-9.1-6.68c0-.87.42-2.07,4-2.56l.5-.06.06.5a4.56,4.56,0,0,0,9.05,0Zm-8.22-.08V65.65h7.21l0,.5v2a3.63,3.63,0,1,1-7.25,0ZM44.5,56.35a8.87,8.87,0,0,1-8.85,8.37H29.44a8.87,8.87,0,0,1-8.85-8.37L20.28,51H30.43l-.34,2.35a1.68,1.68,0,0,0,.4,1.36,1.7,1.7,0,0,0,1.28.59h1.55a1.74,1.74,0,0,0,1.29-.59A1.71,1.71,0,0,0,35,53.32L34.66,51H44.81ZM31,53.46,31.38,51h2.33l.37,2.49a.79.79,0,0,1-.18.61.77.77,0,0,1-.58.26H31.77a.73.73,0,0,1-.57-.26A.76.76,0,0,1,31,53.46ZM49.72,52l-.21.15a3.77,3.77,0,0,1-3.5.45l-.35-.12L45.75,51H49.2l.52,0Zm0-5.65V50l-.45,0H15.93l-.47,0v-3.6A1.76,1.76,0,0,0,14,44.66l-1.38-.26-.4-.08V38.55a4,4,0,0,1,4-4h4.17a.47.47,0,0,0,0-.94H16l-.72,0,.22-.68A14,14,0,0,1,25,23.68l.21-.06.18.12a1.78,1.78,0,0,0,.92.26H29.9v5.74a4.36,4.36,0,0,1-2.26,3.81l-.11.06H24.85a.47.47,0,0,0,0,.94H48.91a4,4,0,0,1,4,4v5.78l-.4.08-1.33.25A1.76,1.76,0,0,0,49.72,46.39Zm10.72-3.82h0a.46.46,0,0,0,.26.25.5.5,0,0,0,.36,0,12.36,12.36,0,0,0,2.38-1.41l.81-.62V54.24a1.9,1.9,0,0,1,0,.4c-.18.73-1,1.86-3.66,3.09a39.51,39.51,0,0,1-8.9,2.57l-.16,0a.88.88,0,0,1-.52-.19.83.83,0,0,1-.3-.63V46.39a.84.84,0,0,1,.68-.81c1.07-.19,2.1-.4,3.06-.62.79-.18,1.56-.38,2.29-.59a.47.47,0,0,0-.26-.9c-.62.18-1.28.35-2,.51l-.61.15V38.55a4.92,4.92,0,0,0-2.76-4.43L50.88,34l-.05-.23c-.07-.29-.14-.58-.23-.87l-.23-.77.8.14a41.6,41.6,0,0,1,9.27,2.56c2.44,1.09,3.8,2.34,3.8,3.51v.14c0,1.16-1.28,2.38-3.59,3.46A.47.47,0,0,0,60.44,42.57Z"></path>
      <path class="cls-3" d="M40.1,11.4h-1v-1a.3.3,0,1,0-.59,0v1h-1a.3.3,0,0,0,0,.59h1v1a.3.3,0,0,0,.59,0V12h1a.3.3,0,1,0,0-.59Z"></path>
      <path class="cls-3" d="M13,22.67H11.67V21.34a.4.4,0,0,0-.79,0v1.33H9.56a.39.39,0,1,0,0,.78h1.32v1.32a.4.4,0,1,0,.79,0V23.45H13a.39.39,0,1,0,0-.78Z"></path>
      <path class="cls-3" d="M59.13,65.42h-.78v-.78a.23.23,0,0,0-.46,0v.78h-.78a.24.24,0,1,0,0,.47h.78v.78a.23.23,0,0,0,.46,0v-.78h.78a.24.24,0,1,0,0-.47Z"></path>
      <path class="cls-3" d="M21.18,11.19H19.5V9.51A.5.5,0,0,0,19,9a.5.5,0,0,0-.5.5v1.68H16.82a.5.5,0,0,0-.5.5.5.5,0,0,0,.5.5H18.5v1.68a.5.5,0,0,0,.5.5.5.5,0,0,0,.5-.5V12.19h1.68a.5.5,0,0,0,.5-.5A.51.51,0,0,0,21.18,11.19Z"></path>
    </g>
  </g>
</svg>