<svg xmlns="http://www.w3.org/2000/svg" viewBox="0 0 66.34 76.36"><defs><style>.cls-1{fill:#00a5e0;}.cls-2{fill:#fff;}.cls-3{fill:#231f20;}</style></defs><g id="Layer_2" data-name="Layer 2"><g id="Layer_1-2" data-name="Layer 1"><circle class="cls-1" cx="35.76" cy="30.58" r="30.58"></circle><path class="cls-2" d="M44.5,9.32h-1v-1a.29.29,0,0,0-.3-.3.3.3,0,0,0-.3.3v1h-1a.3.3,0,0,0-.3.3.29.29,0,0,0,.3.3h1v1a.3.3,0,0,0,.3.29.29.29,0,0,0,.3-.29v-1h1a.29.29,0,0,0,.29-.3A.3.3,0,0,0,44.5,9.32Z"></path><path class="cls-2" d="M52.65,21.71H51.33V20.39a.4.4,0,0,0-.79,0v1.32H49.22a.4.4,0,0,0,0,.79h1.32v1.32a.4.4,0,0,0,.79,0V22.5h1.32a.4.4,0,0,0,0-.79Z"></path><path class="cls-2" d="M24.3,15.23H22.62V13.55a.5.5,0,0,0-.5-.5.51.51,0,0,0-.5.5v1.68H19.94a.51.51,0,0,0-.5.5.5.5,0,0,0,.5.5h1.68v1.68a.5.5,0,0,0,.5.5.5.5,0,0,0,.5-.5V16.23H24.3a.5.5,0,0,0,.5-.5A.5.5,0,0,0,24.3,15.23Z"></path><path class="cls-3" d="M7.93,44.27s-.6-7.22.06-8.65,3.45-5.51,6.1-5.58,6.17.8,6.88,2.72,2.25,1.67,1.77,3.13-.42-3.27.64-4.35,2.77-5.14,6.28-5.79,6.13-1.22,9.7,1.54S43.79,32.9,43.65,34a7.21,7.21,0,0,0,0,1.94s1.37-4.41,3.4-5,5.1-2.13,7.55,0,3.67,3.1,3.78,6.4,0,6,0,6-1.28,6-4.26,6c-.4,0,.14,3.3.14,3.3l5.79,1.23L53.74,69.47H29.07L15.34,60.41S12,53.54,12,52.92s-.07-3.64-.07-3.64S8.09,46.75,7.93,44.27Z"></path><polygon class="cls-1" points="18.66 49.28 22.81 44.75 28.4 51.57 27.98 55.78 23.38 53.94 18.66 52.85 18.66 49.28"></polygon><path class="cls-1" d="M37.73,51V56l3-1.62,6.81-1.63V49.28l-4.23-5S40.66,50.06,37.73,51Z"></path><path class="cls-2" d="M66.34,70.51V61.59a8.44,8.44,0,0,0-6.49-8.22l-5-1.2v-2.8l.36-.23a7.94,7.94,0,0,0,3.73-6.74V37.46A8,8,0,0,0,45,32.18L44,33.24l-.39-1.36a10.89,10.89,0,0,0-20.94,0l-.39,1.37-.94-1.07a8,8,0,0,0-14,5.26V42.4a7.92,7.92,0,0,0,3.73,6.74l.36.23v2.8l-5,1.2A8.44,8.44,0,0,0,0,61.59v8.92a.54.54,0,0,0,.54.54H11.93v4.76a.55.55,0,0,0,.55.55H27a.55.55,0,0,0,.55-.55.54.54,0,0,0-.55-.54h-6.7V68.65a.55.55,0,0,0-.54-.55.55.55,0,0,0-.55.55v6.62H13V68.5a10.44,10.44,0,0,1,8-10.18l7.15-1.71,4.46,10.14a.57.57,0,0,0,1,0l4.46-10.13,7.13,1.71a10.43,10.43,0,0,1,8,10.18v6.76H47.1V68.65a.55.55,0,0,0-.54-.55.55.55,0,0,0-.55.55v6.62H38.74a.55.55,0,0,0-.55.54.55.55,0,0,0,.55.55H53.83a.55.55,0,0,0,.55-.55V71.05H65.79A.55.55,0,0,0,66.34,70.51Zm-22-35a6.89,6.89,0,0,1,13.49,1.94V38.7H53.25a17.24,17.24,0,0,1-8.55-2.28l-.53-.31Zm-.28,6.64c0-.22,0-3.54,0-3.54V37.36l1.13.56a18.39,18.39,0,0,0,8,1.87h4.58V42.4a6.89,6.89,0,0,1-13.77,0ZM23.38,34.89a9.8,9.8,0,0,1,19.6,0v1.54l-6.1-3.58a.53.53,0,0,0-.69.12,10.8,10.8,0,0,1-8.29,3.87H23.38ZM8.51,37.46A6.89,6.89,0,0,1,22,35.52l.17.59-.53.31a17.24,17.24,0,0,1-8.56,2.28H8.51Zm0,4.94V39.79h4.58a18.37,18.37,0,0,0,8.06-1.88l1.12-.55v5a6.88,6.88,0,1,1-13.76,0Zm6,18.85a11.56,11.56,0,0,0-2.55,7.25V70H6.4V63.29a.55.55,0,0,0-1.1,0V70H1.09V61.59a7.34,7.34,0,0,1,5.65-7.16l4.85-1.16,3.18,7.62Zm.91-1.7-2.81-6.73,0-.2V49.93l1,.23a8,8,0,0,0,3.65,0l1-.23,0,2.78-.07.31Zm5.4-2.29a11.62,11.62,0,0,0-2.1.73l-1.81.81,2.32-5.53,4.85,1.16a7.7,7.7,0,0,1,1.06.34l2.25.92ZM28,55.14l-1.2-.74a8.45,8.45,0,0,0-2.48-1l-5-1.21V49.38l.37-.23a8.14,8.14,0,0,0,2.5-2.49l.73-1.16.62,1.22a11,11,0,0,0,4.12,4.4l.38.23Zm9.28.73-4.1,9.31-4.09-9.32v-4l1,.3a10.92,10.92,0,0,0,6.18,0l1-.29Zm-4.08-4.3a9.81,9.81,0,0,1-9.8-9.79V37.93H27.9a11.86,11.86,0,0,0,8.41-3.48l.42-.43L43,37.69v4.4A9.76,9.76,0,0,1,33.18,51.57Zm5.17-.2.38-.23a10.9,10.9,0,0,0,4.14-4.4l.62-1.21.73,1.15a8.26,8.26,0,0,0,2.49,2.47l.36.23v2.78l-5,1.21a8.38,8.38,0,0,0-2.49,1l-1.19.75ZM47.64,58a11.91,11.91,0,0,0-2.13-.73L39,55.71l2.23-.93a8.14,8.14,0,0,1,1.09-.35l4.84-1.16,2.32,5.56Zm.5-5.14,0-.27V49.93l1,.23a8.08,8.08,0,0,0,3.66,0l1-.23v2.83l-.06.22-2.75,6.57ZM65.25,70H61V63.29a.55.55,0,0,0-.54-.55.55.55,0,0,0-.55.55V70H54.38V68.51a11.57,11.57,0,0,0-2.54-7.24l-.29-.37,3.19-7.63,4.86,1.16a7.35,7.35,0,0,1,5.65,7.16Z"></path></g></g></svg>